<svg xmlns="http://www.w3.org/2000/svg" viewBox="0 0 438.5 438.5"><path d="M414.4 24.1C398.3 8 379 0 356.3 0H82.2C59.6 0 40.2 8 24.1 24.1 8 40.2 0 59.6 0 82.2v274.1c0 22.6 8 42 24.1 58.1 16.1 16.1 35.5 24.1 58.1 24.1h274.1c22.6 0 42-8 58.1-24.1 16.1-16.1 24.1-35.5 24.1-58.1V82.2C438.5 59.6 430.5 40.2 414.4 24.1zM133.6 367.2H67.7V169h66V367.2zM127.6 132.3c-6.9 6.6-15.9 9.9-27.1 9.9h-0.3c-10.8 0-19.6-3.3-26.4-9.9 -6.8-6.6-10.1-14.7-10.1-24.4 0-9.9 3.5-18.1 10.4-24.6 7-6.5 15.9-9.7 27-9.7 11 0 19.9 3.2 26.6 9.7 6.7 6.5 10.1 14.7 10.3 24.6C137.9 117.6 134.5 125.8 127.6 132.3zM370.9 367.2h-66v-105.9c0-29.9-11-44.8-33.1-44.8 -8.4 0-15.4 2.3-21.1 7 -5.7 4.7-10 10.3-12.8 17 -1.3 3.4-2 8.8-2 16v110.8h-66c0.6-119.5 0.6-185.6 0-198.1h66v28c13.9-21.7 33.6-32.5 59.1-32.5 22.8 0 41.2 7.5 55.1 22.6 13.9 15 20.8 37.2 20.8 66.5v113.6H370.9z" fill="#FFF"/></svg>