<svg xmlns="http://www.w3.org/2000/svg" viewBox="0 0 240.2 240.2"><style>.a{fill:#FFF;}</style><path d="m39.8 72.5h97.7c3.9 0 7-3.1 7-7s-3.1-7-7-7h-97.7c-3.9 0-7 3.1-7 7s3.1 7 7 7z" class="a"/><path d="m39.8 96.5h97.7c3.9 0 7-3.1 7-7s-3.1-7-7-7h-97.7c-3.9 0-7 3.1-7 7s3.1 7 7 7z" class="a"/><path d="m91.5 178.7h-51.7c-3.9 0-7 3.1-7 7s3.1 7 7 7h51.7c3.9 7-3.1-7s-3.1-7-7-7z" class="a"/><path d="m236.8 20.9l-20.6-12.3c-1.6-1-3.5-1.2-5.3-0.8-1.8 0.5-3.3 1.6-4.3 3.2l-35.8 59.7v-42.3c0-3.9-3.1-7-7-7h-156.7c-3.9 0-7 3.1-7 7v197.2c0 3.9 3.1 7 7 7h156.8c3.9 0 7-3.1 7-7v-81.1l68.4-114c2-3.3 0.9-7.6-2.4-9.6zm-90.4 137.1l-11.6 9.6 3-14.8 67.2-111.9 8.6 5.1-67.2 111.9zm74.4-123.9l-8.6-5.1 2.8-4.7 8.6 5.1-2.8 4.7zm-206.7 184.5v-183.2h142.8v58.7l-12.4 20.6c0-0.3 0.1-0.7 0.1-1 0-3.9-3.1-7-7-7h-97.7c-3.9 0-7 3.1-7 7s3.1 7 7 7h97.7c1.6 0 3-0.5 4.2-1.4l-6.9 11.4h-95c-3.9 0-7 3.1-7 7s3.1 7 7 7h86.6l-1.2 2c-0.4 0.7-0.7 1.4-0.9 2.2l-1.2 5.9h-83.3c-3.9 0-7 3.1-7 7s3.1 7 7 7h80.4l-3.2 15.6c-0.6 2.9 0.7 5.9 3.3 7.4 1.1 0.7 2.4 1 3.6 1 1.6 0 3.2-0.5 4.5-1.6l27.9-23.1c0.2-0.2 0.4-0.3 0.5-0.5v51.1h-142.7z" class="a"/></svg>