<svg xmlns="http://www.w3.org/2000/svg" viewBox="0 0 512.004 512.004"><path d="M251.988 12.34v34.74l40.125 8.025c0-36.83-23.475-45.488-34.513-47.524-2.943-.542-5.612 1.77-5.612 4.76z" fill="#D7B48C"/><path d="M364.337 392.152c0-96.3 40.125-120.01 40.125-208.65 0-134.706-137.802-144.14-169.916-144.508-3.857-.044-7.155 2.672-7.91 6.454l-6.747 33.73 96.298 160.5 8.025 152.474h40.124" fill="#EBC9A0"/><path d="M290.712 78.498c-38.248-12.29-80.99-10.63-96.4-9.18-8.263.78-14.55 7.687-14.55 15.986v9.926l-74.175 74.176c-3.795 3.795-5.442 9.234-4.39 14.497l5.315 26.57c.624 3.118 3.055 5.66 6.168 6.313 42.04 8.803 69.537-6.66 82.496-17.027 5.222-4.18 12.444-5.235 18.26-1.93 28.6 16.25 54.6 9.75 54.6 9.75-73.47 73.47-96.298 123.29-96.298 152.474 0 32.1 24.075 48.15 24.075 48.15h176.55s-26.082-39.623 2.507-172.536c22.078-102.65-27.92-139.102-84.158-157.17z" fill="#F5DCB4"/><g fill="#EBC9A0"><path d="M235.938 392.152s-32.1-56.175 24.075-120.374c49.01-56.01 48.078-85.61 43.836-97.676-1.324-3.764-5.302-6.014-9.18-5.078-45.13 10.893-75.704-32.747-98.856-9.596-16.05 16.05-48.15 32.1-93.352 30.787l4.05 20.255c.625 3.12 3.044 5.66 6.16 6.312 42.044 8.808 69.546-6.656 82.506-17.025 5.222-4.18 12.445-5.234 18.26-1.93 28.6 16.25 54.6 9.75 54.6 9.75-73.47 73.472-96.298 123.292-96.298 152.475 0 19.033 8.45 32.377 15.342 40.125h48.857l-.002-8.025z"/><path d="M396.437 432.277h-240.75v-24.075c0-8.864 7.187-16.05 16.05-16.05h208.65c8.864 0 16.05 7.186 16.05 16.05v24.075z"/></g><path d="M219.888 432.277v-24.075c0-8.864 7.186-16.05 16.05-16.05h-64.2c-8.864 0-16.05 7.185-16.05 16.05v24.075h64.2z" fill="#D7B48C"/><path d="M396.437 504.5h-240.75c-8.863 0-16.05-7.185-16.05-16.05V440.3c0-8.863 7.187-16.05 16.05-16.05h240.75c8.863 0 16.05 7.187 16.05 16.05v48.15c0 8.866-7.186 16.05-16.05 16.05z" fill="#F5DCB4"/><path d="M227.913 488.45V440.3c0-8.863 7.186-16.05 16.05-16.05H155.69c-8.865 0-16.05 7.186-16.05 16.05v48.15c0 8.865 7.185 16.05 16.05 16.05h88.273c-8.864 0-16.05-7.185-16.05-16.05z" fill="#EBC9A0"/><path d="M403.774 418.08v-9.765c0-12.976-10.556-23.53-23.53-23.53h-8.44c1.013-43.5 10.735-71.656 20.16-98.925 9.747-28.205 19.826-57.37 19.826-101.98 0-43.22-13.698-78.225-40.713-104.04-21.418-20.467-48.053-32.22-72.547-38.95-5.11-21.907-17.072-31.895-26.39-36.423-10.484-5.094-19.755-4.486-20.774-4.4-3.885.326-6.87 3.574-6.87 7.473v24.782c-9.698-.498-15.962-.255-16.89-.213-4.137.187-7.34 3.694-7.15 7.832.188 4.138 3.698 7.338 7.833 7.15.823-.042 83.43-3.225 132.424 43.593 23.938 22.875 36.076 54.23 36.076 93.196 0 42.09-9.23 68.802-19.005 97.08-9.834 28.458-19.98 57.846-20.984 103.824H184.177c-1.92-4.008-4.818-12.11-4.837-24.572-.03-19.762 12.142-65.135 93.99-146.98 2.383-2.384 2.883-6.065 1.222-9-1.66-2.934-5.072-4.398-8.346-3.58-.23.06-23.352 5.597-49.013-8.984-8.31-4.72-18.763-3.7-26.63 2.593-11.87 9.5-37.27 23.754-76.443 15.466l-6.28-31.395 77.318-77.315c1.406-1.407 2.196-3.314 2.196-5.304v-9.913c0-4.43 3.325-8.084 7.734-8.5 15.068-1.42 54.326-3.397 93.337 8.857 3.96 1.246 8.163-.956 9.403-4.907 1.24-3.952-.956-8.162-4.907-9.403-41.62-13.073-83.268-10.986-99.238-9.48-12.16 1.147-21.328 11.22-21.328 23.434v6.808l-77.96 77.958c-1.77 1.773-2.54 4.315-2.05 6.774l8.016 40.077c.568 2.842 2.724 5.103 5.535 5.806 48.058 12.014 79.545-5.648 94.04-17.245 2.997-2.397 6.953-2.906 9.848-1.264 14.588 8.29 28.553 11.15 39.345 11.83-69.718 73.138-84.826 118.29-84.79 143.695.017 10.667 1.768 18.898 3.777 24.848-11.212 1.79-19.807 11.525-19.807 23.234v9.764c-9.308 3.14-16.03 11.946-16.03 22.3v48.093c0 12.976 10.555 23.53 23.53 23.53h240.466c12.976 0 23.53-10.555 23.53-23.53V440.38c0-10.356-6.722-19.162-16.03-22.3zM259.494 15.79c1.848.44 3.935 1.12 6.088 2.165 7.304 3.55 12.702 9.917 16.125 18.97-7.968-1.577-15.472-2.66-22.213-3.397V15.792zm145.31 472.678c0 4.704-3.826 8.53-8.53 8.53H155.808c-4.704 0-8.53-3.826-8.53-8.53v-48.093c0-4.704 3.826-8.53 8.53-8.53H348.18c4.144 0 7.5-3.358 7.5-7.5s-3.356-7.5-7.5-7.5H163.31v-8.532c0-4.704 3.827-8.53 8.53-8.53h208.405c4.703 0 8.53 3.826 8.53 8.53v8.53h-8.533c-4.143 0-7.5 3.358-7.5 7.5s3.357 7.5 7.5 7.5h16.033c4.704 0 8.53 3.828 8.53 8.532l.002 48.093z"/><path d="M328.49 104.955c1.278.853 2.724 1.26 4.153 1.26 2.423 0 4.802-1.172 6.247-3.34 2.298-3.445 1.367-8.103-2.08-10.4-4.183-2.79-8.613-5.435-13.17-7.864-3.656-1.95-8.198-.563-10.146 3.09-1.948 3.656-.565 8.198 3.09 10.147 4.124 2.2 8.13 4.59 11.905 7.108zM211.917 96.225c-4.143 0-7.5 3.357-7.5 7.5v8.016c0 4.144 3.357 7.5 7.5 7.5s7.5-3.356 7.5-7.5v-8.015c0-4.143-3.357-7.5-7.5-7.5z"/></svg>